<?xml version="1.0" encoding="UTF-8" standalone="no"?>
<!-- Created with Inkscape (http://www.inkscape.org/) -->

<svg
   xmlns:dc="http://purl.org/dc/elements/1.1/"
   xmlns:cc="http://creativecommons.org/ns#"
   xmlns:rdf="http://www.w3.org/1999/02/22-rdf-syntax-ns#"
   xmlns:svg="http://www.w3.org/2000/svg"
   xmlns="http://www.w3.org/2000/svg"
   xmlns:sodipodi="http://sodipodi.sourceforge.net/DTD/sodipodi-0.dtd"
   xmlns:inkscape="http://www.inkscape.org/namespaces/inkscape"
   version="1.1"
   id="svg3713"
   width="689"
   height="689"
   viewBox="0 0 689 689"
   sodipodi:docname="Copy of Homestuck_Spirograph_Logo (1)--'2-3'.svg"
   inkscape:version="0.92.4 (5da689c313, 2019-01-14)">
  <title
     id="title822">Homestuck Spirograph</title>
  <metadata
     id="metadata3719">
    <rdf:RDF>
      <cc:Work
         rdf:about="">
        <dc:format>image/svg+xml</dc:format>
        <dc:type
           rdf:resource="http://purl.org/dc/dcmitype/StillImage" />
        <dc:title>Homestuck Spirograph</dc:title>
        <cc:license
           rdf:resource="http://creativecommons.org/publicdomain/zero/1.0/" />
        <dc:date>11 Decemember 2019</dc:date>
        <dc:creator>
          <cc:Agent>
            <dc:title>MJL</dc:title>
          </cc:Agent>
        </dc:creator>
        <dc:rights>
          <cc:Agent>
            <dc:title>public domain</dc:title>
          </cc:Agent>
        </dc:rights>
        <dc:language>en</dc:language>
        <dc:source>https://www.homestuck.com/story/4109</dc:source>
        <dc:contributor>
          <cc:Agent>
            <dc:title>Andrew Hussie, wikia:mspaintadventures:Keybored6522, Clockingbird, Maplestrip, and MJL.</dc:title>
          </cc:Agent>
        </dc:contributor>
        <dc:description>A limegreen spirograph from Homestuck</dc:description>
      </cc:Work>
      <cc:License
         rdf:about="http://creativecommons.org/publicdomain/zero/1.0/">
        <cc:permits
           rdf:resource="http://creativecommons.org/ns#Reproduction" />
        <cc:permits
           rdf:resource="http://creativecommons.org/ns#Distribution" />
        <cc:permits
           rdf:resource="http://creativecommons.org/ns#DerivativeWorks" />
      </cc:License>
    </rdf:RDF>
  </metadata>
  <defs
     id="defs3717">
    <inkscape:path-effect
       effect="bspline"
       id="path-effect826"
       is_visible="true"
       weight="33.333333"
       steps="2"
       helper_size="0"
       apply_no_weight="true"
       apply_with_weight="true" />
    <inkscape:path-effect
       effect="bspline"
       id="path-effect826-5"
       is_visible="true"
       weight="33.333333"
       steps="2"
       helper_size="0"
       apply_no_weight="true"
       apply_with_weight="true" />
  </defs>
  <sodipodi:namedview
     pagecolor="#ffffff"
     bordercolor="#666666"
     borderopacity="1"
     objecttolerance="10"
     gridtolerance="10"
     guidetolerance="10"
     inkscape:pageopacity="0"
     inkscape:pageshadow="2"
     inkscape:window-width="1366"
     inkscape:window-height="705"
     id="namedview3715"
     showgrid="false"
     inkscape:zoom="0.77793904"
     inkscape:cx="245.40591"
     inkscape:cy="395.62905"
     inkscape:window-x="-8"
     inkscape:window-y="-8"
     inkscape:window-maximized="1"
     inkscape:current-layer="layer3" />
  <g
     inkscape:groupmode="layer"
     id="layer3"
     inkscape:label="Layer 3"
     style="display:inline">
    <ellipse
       style="display:inline;opacity:1;vector-effect:none;fill:none;fill-opacity:1;fill-rule:evenodd;stroke:#ffffff;stroke-width:8.00005913;stroke-linecap:butt;stroke-linejoin:miter;stroke-miterlimit:4;stroke-dasharray:none;stroke-dashoffset:0;stroke-opacity:1"
       id="path812"
       cx="344.5"
       cy="344.5"
       rx="340.5"
       ry="340.49997" />
    <path
       style="display:inline;fill:none;stroke:#ffffff;stroke-width:8;stroke-linecap:butt;stroke-linejoin:miter;stroke-miterlimit:4;stroke-dasharray:none;stroke-opacity:1"
       d="m 470.00303,262.55156 c 10.529,-0.60611 30.67736,-2.27251 52.49161,7.87747 21.81425,10.14999 45.29522,32.11606 61.18444,55.91205 15.88922,23.79599 24.18551,49.41908 29.27404,70.5627 5.08853,21.14361 6.96709,37.79948 5.84299,54.15224 -1.12409,16.35275 -5.25125,32.40123 -9.89343,46.15417 -4.64219,13.75295 -9.79902,25.20831 -21.60868,43.83615 -11.80967,18.62784 -30.27548,44.43281 -47.08291,62.56192 -16.80744,18.1291 -31.9553,28.58112 -48.46867,38.42865 -16.51336,9.84752 -34.38847,19.08804 -54.15946,24.0876 -19.77099,4.99955 -41.43173,5.75692 -57.64162,5.83269 -16.20989,0.0758 -26.96527,-0.53016 -47.63896,-5.47502 C 311.6287,661.53732 281.3203,652.33925 255.75481,641.15221 230.18932,629.96517 209.3617,616.73888 192.39425,599.54419 175.42681,582.3495 162.2472,561.14093 154.31708,541.97345 146.38695,522.80597 143.61379,505.08853 141.5687,490.0154 c -2.04508,-15.07313 -3.38901,-27.61643 -3.08152,-39.44877 0.30748,-11.83235 2.24861,-22.28461 4.36956,-31.44986 2.12095,-9.16525 4.39333,-16.89132 8.2566,-24.39011 3.86328,-7.49879 9.31697,-14.77038 14.99754,-21.20826 5.68057,-6.43789 11.58965,-12.04394 16.66466,-16.36136 5.07501,-4.31742 9.31679,-7.34726 12.7382,-9.41055 3.42141,-2.06329 6.0231,-3.16063 4.39085,-5.01178 -1.63226,-1.85114 -7.49734,-4.45694 -14.6275,-9.61443 -7.13016,-5.15749 -15.52493,-12.86647 -22.6223,-22.14979 -7.09738,-9.28332 -12.89713,-20.14059 -17.27512,-35.39799 -4.37799,-15.2574 -7.33431,-34.91457 -6.17954,-55.82057 1.15477,-20.90599 6.42021,-43.0605 11.47681,-59.21246 5.0566,-16.15195 9.9046,-26.30244 15.66093,-37.13339 5.75634,-10.83095 12.42275,-22.34566 23.85975,-33.858238 11.437,-11.512573 27.64825,-23.027111 43.93305,-32.646429 16.28479,-9.619318 32.64701,-17.345922 51.73492,-23.859914 19.08791,-6.513991 40.77925,-11.786191 63.80995,-14.45215 23.0307,-2.665959 46.88261,-2.665959 65.82426,-0.78522 18.94166,1.88074 32.83766,5.642035 46.37538,11.101116 13.53771,5.45908 26.65714,12.583179 40.95696,23.096919 14.29982,10.51374 29.51971,24.22565 42.92124,38.536113 13.40153,14.310463 24.9148,29.156523 36.20095,47.865723 11.28616,18.7092 22.34496,41.28127 29.16212,63.17155 6.81716,21.89028 9.39235,43.09777 6.28683,67.18625 -3.10552,24.08848 -11.89148,51.05228 -21.96565,71.88269 -10.07417,20.83041 -21.43469,35.52336 -32.03982,47.11346 -10.60513,11.5901 -20.4513,20.07296 -31.66224,26.28458 -11.21095,6.21162 -23.78346,10.15 -35.4488,11.8891 -11.66534,1.7391 -22.1175,1.29115 -28.57435,0.86271 -6.45685,-0.42843 -8.76434,-0.83064 -8.53744,1.7983 0.22691,2.62893 2.98829,8.28156 5.35501,14.23992 2.36671,5.95837 4.33591,12.21646 5.39508,19.43634 1.05916,7.21989 1.21339,15.7025 0.2287,24.79248 -0.98468,9.08998 -3.10531,18.93576 -5.66552,26.8591 -2.56021,7.92334 -5.61998,14.04289 -9.0289,20.70924 -3.40893,6.66634 -7.19546,13.93649 -12.49809,21.73904 -5.30263,7.80255 -12.11862,16.13321 -21.51181,26.05671 -9.39319,9.9235 -21.35945,21.43534 -35.97902,30.82836 -14.61957,9.39301 -31.88812,16.66399 -47.79527,21.51196 -15.90715,4.84797 -30.44931,7.27167 -46.27693,8.02942 -15.82761,0.75776 -32.95284,-0.15155 -55.02048,-5.6146 C 214.31011,631.71756 187.3955,621.73799 162.92928,610.22449 138.46306,598.711 116.49724,585.68299 97.900321,569.5198 79.303399,553.35661 63.929299,533.8726 53.930846,513.79975 43.932392,493.72689 39.236125,472.97242 35.903378,454.49069 c -3.332746,-18.48174 -5.302207,-34.69191 -5.832377,-54.00655 -0.530171,-19.31465 0.378827,-41.73659 3.560197,-61.27868 3.18137,-19.5421 8.635315,-36.20693 15.452286,-51.5828 6.81697,-15.37587 14.998098,-29.46559 27.475093,-43.44774 12.476995,-13.98216 29.032073,-27.67772 46.756633,-38.35766 17.72456,-10.67994 36.50951,-18.25452 51.88585,-23.02635 15.37634,-4.77183 27.34417,-6.74122 40.90251,-6.58957 13.55833,0.15164 28.70748,2.42401 40.14455,6.13541 11.43706,3.71139 19.16361,8.86243 25.7718,13.77287 6.60819,4.91044 12.09863,9.58068 15.20435,10.79197 3.10572,1.21129 3.82642,-1.03508 5.01993,-5.64258 1.1935,-4.60749 2.8599,-11.57607 5.5112,-18.24171 2.6513,-6.66563 6.28709,-13.02827 11.28645,-19.69382 4.99935,-6.66555 11.362,-13.63416 18.25432,-20.4507 6.89232,-6.81653 14.31659,-13.48322 30.44874,-20.37528 16.13215,-6.89205 40.98027,-14.01316 64.08369,-17.34415 23.10342,-3.33098 44.15859,-2.8798 64.65685,1.27495 20.49825,4.15475 40.40085,12.05502 57.82215,22.43212 17.42129,10.37709 32.34701,23.19211 47.87315,41.22982 15.52613,18.0377 31.35644,40.95396 42.19853,59.68919 10.84208,18.73523 16.57781,33.07454 21.50136,46.93619 4.92355,13.86166 9.01368,27.19243 11.36189,42.72056 2.34821,15.52813 2.95415,33.25179 1.73784,48.19174 -1.2163,14.93996 -4.23706,27.02297 -10.60005,44.06682 -6.363,17.04384 -16.05697,39.00673 -30.90378,61.95905 -14.84682,22.95231 -34.84257,46.88662 -49.46156,61.50586 -14.61898,14.61924 -23.85956,19.92121 -37.11616,27.11766 -13.2566,7.19645 -30.40963,16.22436 -51.68327,20.57089 -21.27364,4.34653 -46.10357,3.89507 -65.57037,1.85002 -19.46681,-2.04506 -33.30642,-5.65539 -46.50231,-10.23195 -13.1959,-4.57656 -25.38077,-9.99206 -36.66712,-17.94546 -11.28635,-7.95341 -21.44489,-18.26134 -29.04783,-28.70586 -7.60293,-10.44451 -12.23403,-20.45367 -15.03657,-29.69487 -2.80253,-9.24119 -3.71119,-17.57053 -7.19612,-18.02526 -3.48494,-0.45473 -9.54264,6.96596 -21.73969,14.16293 -12.19705,7.19698 -30.52324,14.16396 -49.30901,15.98204 -18.78578,1.81809 -38.02393,-1.5145 -57.26394,-7.80156 -19.24001,-6.28705 -38.47862,-15.52765 -54.49482,-25.86727 -16.0162,-10.33962 -28.977082,-21.92817 -40.717821,-35.63834 -11.740738,-13.71017 -22.345103,-29.61672 -30.14692,-48.8564 -7.801817,-19.23967 -12.801036,-41.8119 -14.315832,-67.7171 -1.514797,-25.9052 0.454592,-55.14305 3.062081,-76.76428 2.607488,-21.62122 5.954209,-36.06298 11.105085,-50.1517 5.150875,-14.08872 12.156241,-28.04301 20.809136,-41.38196 8.652896,-13.33894 18.955591,-26.0658 36.376201,-40.15367 17.42061,-14.08787 41.96433,-29.541321 66.27815,-41.205806 24.31383,-11.664484 48.40212,-19.542416 68.24704,-23.93548 19.84492,-4.393064 35.44932,-5.302059 51.80974,-4.847568 16.36041,0.454491 33.4801,2.272511 51.28011,7.802003 17.80001,5.529492 36.28197,14.770472 54.15776,28.101621 17.87579,13.331149 35.14577,30.75261 47.94673,48.47695 12.80097,17.72433 21.13298,35.75177 25.44909,50.69065 4.31612,14.93889 4.62204,27.02295 2.72848,39.44594 -1.89356,12.42299 -5.98357,25.29894 -8.48301,32.34341 -2.49943,7.04447 -3.40826,8.25624 -3.40806,9.09031 2e-4,0.83408 0.9083,1.28813 11.4373,0.68202 z"
       id="path824"
       inkscape:connector-curvature="0"
       inkscape:path-effect="#path-effect826"
       inkscape:original-d="m 460.38258,263.61195 c 20.14937,-1.66741 40.29773,-3.33381 60.4451,-4.99922 23.48217,21.96526 46.96314,43.93133 70.44353,65.89879 8.29829,25.62516 16.59458,51.24825 24.89164,76.87779 1.8799,16.65796 3.75846,33.31383 5.63613,49.97179 -4.12626,16.04785 -8.25342,32.09633 -12.38201,48.14746 -5.15603,11.45478 -10.31286,22.91014 -15.47013,34.36526 -18.46232,25.80049 -36.92813,51.60547 -55.39466,77.41105 -15.14867,10.45228 -30.29654,20.9043 -45.44744,31.35874 -17.87588,9.24044 -35.75099,18.48096 -53.62798,27.72294 -21.66482,0.75654 -43.32556,1.51391 -64.98984,2.27237 -10.75541,-0.60699 -21.51079,-1.21293 -32.26768,-1.8179 -30.60296,-9.24278 -60.89858,-18.48296 -91.34936,-27.72294 -20.67982,-13.13407 -41.50744,-26.36037 -62.263,-39.53927 -13.1789,-21.21004 -26.35851,-42.41861 -39.53927,-63.62642 -2.72582,-17.11935 -5.45269,-34.84404 -8.18054,-52.26456 -1.36236,-12.72568 -2.70629,-25.26898 -4.09027,-38.17585 1.99864,-10.75755 3.93978,-21.20981 5.90817,-31.8132 2.27337,-7.72707 4.54574,-15.45314 6.81712,-23.1782 5.45469,-7.27259 10.90838,-14.54418 16.36107,-21.81477 5.90826,-5.60533 11.81734,-11.21138 17.7245,-16.81555 4.24276,-3.03083 8.48453,-6.06067 12.72529,-9.0895 2.60199,-1.09805 5.20368,-2.19539 7.80403,-3.29159 -5.86411,-2.60681 -11.72919,-5.21261 -17.5953,-7.81742 -8.39379,-7.71 -16.78856,-15.41898 -25.18434,-23.12697 -5.79874,-10.85825 -11.59849,-21.71552 -17.39922,-32.57175 -2.95531,-19.6581 -5.91163,-39.31527 -8.86895,-58.97141 5.26645,-22.15551 10.53189,-44.31002 15.79634,-66.46353 4.84846,-10.15037 9.69645,-20.30086 14.54318,-30.44979 6.66583,-11.51299 13.33225,-23.0277 19.99687,-34.540055 16.20892,-11.513169 32.42018,-23.027703 48.62876,-34.540055 16.36094,-7.726526 32.72316,-15.453132 49.08324,-23.178196 21.81577,-5.3032 43.50711,-10.575402 65.44432,-15.906604 24.12436,-10e-4 47.97627,-10e-4 71.9629,0 13.897,3.760295 27.793,7.521589 41.688,11.283885 13.18076,7.155859 26.30019,14.279957 39.53927,21.470571 15.36086,13.837007 30.58075,27.548918 45.86962,41.324874 11.51435,14.84516 23.02762,29.69122 34.54006,44.5385 11.05996,22.57139 22.11876,45.14346 33.17663,67.71668 2.57635,21.2078 5.15155,42.41529 7.72606,63.62642 -8.78605,26.96616 -17.57201,53.92996 -26.35951,80.89644 -11.3613,14.69425 -22.72183,29.3872 -34.08558,44.08402 -9.84672,8.48319 -19.69289,16.96605 -29.54084,25.45057 -12.57406,3.93818 -25.14658,7.87656 -37.72138,11.81634 -10.75591,-0.45552 -21.2078,-0.90995 -31.81321,-1.36343 -2.30813,-0.40349 -4.61562,-0.80569 -6.92738,-1.20747 2.76657,5.66019 5.52795,11.31282 8.29081,16.97151 1.97057,6.25825 3.93977,12.51634 5.90816,18.77602 0.15251,8.1804 0.30399,16.66306 0.45448,24.99609 -2.12013,9.84711 -4.24076,19.69289 -6.36264,29.54084 -2.87768,6.05937 -6.05866,12.11832 -9.08949,18.17897 -3.78704,7.27204 -7.57357,14.54219 -11.36186,21.81478 -6.81724,8.3324 -13.63323,16.66306 -20.45135,24.99609 -11.96839,11.51386 -23.93465,23.0257 -35.90348,34.54005 -17.2705,7.27121 -34.53905,14.54219 -51.81008,21.81478 -14.5432,2.42303 -29.08536,4.84672 -43.62955,7.27159 -17.11887,-0.75852 -34.23607,-1.8189 -51.35561,-2.72685 C 214.35994,631.58317 187.39595,621.73679 160.42947,611.73935 138.46376,598.70982 116.49794,585.68182 94.530679,572.65455 79.23083,553.41387 63.930401,533.87173 48.628763,514.48182 43.933558,493.72663 39.237291,472.97216 34.540056,452.21883 c -1.96832,-16.21001 -3.937779,-32.42018 -5.908168,-48.62876 0.9099,-22.42054 1.818898,-44.84248 2.726847,-67.26222 5.45444,-16.66429 10.908386,-33.32912 16.361079,-49.99218 8.180951,-14.0887 16.362079,-28.17842 24.541618,-42.26612 16.774055,-13.87689 33.329128,-27.57245 49.992188,-41.35717 18.78594,-7.57558 37.57089,-15.15016 56.35482,-22.72373 11.96883,-1.97039 23.93666,-3.93978 35.90348,-5.90816 15.15015,2.27137 30.2993,4.54374 45.44745,6.81711 7.72658,5.14939 15.45313,10.30042 23.1782,15.45214 5.49145,4.66924 10.9819,9.33948 16.47134,14.01072 0.7217,-2.24738 1.4424,-4.49375 2.1621,-6.73914 1.66741,-6.96963 3.33382,-13.93821 4.99922,-20.90582 3.6368,-6.36364 7.27259,-12.72628 10.90738,-19.08792 6.36364,-6.96961 12.72629,-13.93822 19.08793,-20.90583 7.4229,-6.66556 14.84717,-13.33225 22.26925,-19.99687 24.84208,-7.12009 49.6902,-14.2412 74.5338,-21.3603 21.36028,0.60494 42.41862,0.90795 63.62642,1.36342 19.78917,7.85385 39.69177,15.75412 59.53615,23.63267 14.99865,12.87577 29.92437,25.69079 44.99296,38.63033 15.98391,23.13615 31.81422,46.05241 47.71982,69.08011 5.90923,14.39083 11.51435,28.78238 17.27003,43.17507 4.09142,13.33073 8.18154,26.6615 12.27081,39.99375 0.60699,17.72434 1.21293,35.448 1.8179,53.1735 -3.1805,12.11898 -6.05866,24.23764 -9.08949,36.35796 -9.6954,21.9674 -19.38937,43.93029 -29.08637,65.89879 -19.997,23.936 -39.99275,47.87031 -59.99062,71.80696 -9.24039,5.30143 -18.48096,10.6034 -27.72294,15.9066 -17.27124,9.08965 -34.42426,18.11756 -51.81009,27.26847 -25.16124,-0.4585 -49.99117,-0.90995 -74.98827,-1.36343 -13.93622,-3.63679 -27.77583,-7.24713 -41.81165,-10.90739 -12.35574,-5.49288 -24.54062,-10.90838 -36.81242,-16.36107 -10.30042,-10.45391 -20.45897,-20.76184 -30.90426,-31.35873 -4.76037,-10.29171 -9.39148,-20.30087 -14.08871,-30.44979 -0.90795,-8.33303 -1.8166,-16.66237 -2.72684,-24.9961 -6.06062,7.42448 -12.11832,14.84517 -18.17898,22.26925 -18.33376,6.96924 -36.65994,13.93622 -54.99141,20.90582 -19.23968,-3.33403 -38.47783,-6.66662 -57.71825,-9.99843 C 151.64316,496.14997 132.40455,486.90938 113.16413,477.6694 100.37251,466.23029 87.411627,454.64174 74.533804,443.12934 63.930362,427.22168 53.326,411.31513 42.720595,395.40952 37.722376,372.83629 32.723158,350.26406 27.722939,327.69283 c 1.970389,-29.23885 3.939779,-58.4767 5.908168,-87.71355 3.246388,-14.00549 6.593109,-28.44725 9.888163,-42.66937 7.006365,-13.95529 14.011731,-27.90958 21.016097,-41.86287 10.301143,-12.72471 20.60384,-25.45157 30.90426,-38.17586 24.540513,-15.4518 49.084233,-30.905256 73.624853,-46.356386 24.087,-7.878182 48.17529,-15.756113 72.26143,-23.632669 15.60385,-0.909904 31.20825,-1.818898 46.81087,-2.726847 17.11838,1.816775 34.23807,3.634796 51.35561,5.453693 18.48296,9.239979 36.96492,18.480959 55.44588,27.72294 17.27103,17.420521 34.541,34.841989 51.81008,52.264559 8.33305,18.02653 16.66506,36.05397 24.99609,54.08245 0.30102,11.84982 0.60695,23.93388 0.90895,35.90348 -4.08953,12.87661 -8.17954,25.75256 -12.27081,38.63033 -0.90806,1.21109 -1.81689,2.42286 -2.72684,3.63579 0.91079,0.4539 1.81889,0.90795 2.72684,1.36343 z"
       sodipodi:nodetypes="ccccccccccccccccccccccccccccccccccccccccccccccccccccccccccccccccccccccccccccccccccccccccccccccccccccccccccccccccccccc" />
    <path
       style="display:inline;fill:none;stroke:#ffffff;stroke-width:8;stroke-linecap:butt;stroke-linejoin:miter;stroke-miterlimit:4;stroke-dasharray:none;stroke-opacity:1"
       d="m 468.18499,261.64252 c 10.52926,-0.606 31.58657,-1.81793 53.85523,8.55929 22.26867,10.37721 45.74964,32.34328 61.63886,56.13927 15.88922,23.79599 24.18551,49.41908 29.27404,70.5627 5.08853,21.14361 6.96709,37.79948 5.84299,54.15224 -1.12409,16.35275 -5.25125,32.40123 -9.89343,46.15417 -4.64219,13.75295 -9.79902,25.20831 -21.45723,43.38175 -11.6582,18.17345 -29.82102,43.06944 -46.63025,61.1998 -16.80922,18.13036 -32.25637,29.48856 -48.92126,39.79063 -16.66488,10.30206 -34.53999,19.54258 -54.31098,24.54214 -19.77099,4.99955 -41.43173,5.75692 -60.21663,5.52974 -18.78491,-0.22718 -34.62034,-1.43369 -55.31782,-6.37988 -20.69748,-4.9462 -45.87909,-13.54112 -68.86914,-24.42516 -22.99005,-10.88404 -43.81767,-24.11033 -60.78512,-41.30502 -16.96744,-17.19469 -30.14705,-38.40326 -38.07717,-57.57074 -7.93013,-19.16748 -10.70329,-36.88492 -12.74838,-51.95805 -2.04508,-15.07313 -3.38901,-27.61643 -3.08152,-39.44877 0.30748,-11.83235 2.24861,-22.28461 4.36956,-31.44986 2.12095,-9.16525 4.39333,-16.89132 8.2566,-24.39011 3.86328,-7.49879 9.31697,-14.77038 14.99754,-21.20826 5.68057,-6.43789 11.58965,-12.04394 16.66466,-16.36136 5.07501,-4.31742 9.31679,-7.34726 12.7382,-9.41055 3.42141,-2.06329 6.0231,-3.16063 4.39085,-5.01178 -1.63226,-1.85114 -7.49734,-4.45694 -14.6275,-9.61443 -7.13016,-5.15749 -15.52493,-12.86647 -22.6223,-22.14979 -7.09738,-9.28332 -12.89713,-20.14059 -17.27512,-36.30701 -4.37799,-16.16641 -7.33375,-37.6374 -6.17926,-59.45432 1.15449,-21.81692 6.41842,-43.96505 11.47572,-59.21109 5.0573,-15.24604 9.90529,-23.57853 16.11619,-34.10675 6.2109,-10.52823 13.78453,-23.251931 25.22234,-34.765916 11.43781,-11.513985 26.74002,-21.816465 42.57041,-30.829887 15.83039,-9.013422 32.19261,-16.740026 51.28052,-23.254018 19.08791,-6.513991 40.77925,-11.786191 63.80995,-14.45215 23.0307,-2.665959 46.88261,-2.665959 65.82426,-0.78522 18.94166,1.88074 32.83766,5.642035 45.61791,11.101125 12.78026,5.45909 24.391,12.582753 38.69116,23.09668 14.30015,10.513928 31.02802,24.225837 44.3973,37.735831 13.36928,13.509995 23.43235,26.927415 34.71867,45.636995 11.28632,18.70958 23.85946,42.79549 31.43412,65.44328 7.57465,22.64779 10.14984,43.85528 7.04432,67.94376 -3.10552,24.08848 -11.89148,51.05228 -21.96565,71.88269 -10.07417,20.83041 -21.43469,35.52336 -32.03982,47.11346 -10.60513,11.5901 -20.4513,20.07296 -31.66224,26.28458 -11.21095,6.21162 -23.78346,10.15 -35.4488,11.8891 -11.66534,1.7391 -22.1175,1.29115 -28.57435,0.86271 -6.45685,-0.42843 -8.76434,-0.83064 -8.53744,1.7983 0.22691,2.62893 2.98829,8.28156 5.05203,14.54294 2.06375,6.26139 3.42704,13.12539 4.48766,20.42227 1.06062,7.29687 1.81775,15.01957 1.13608,23.80654 -0.68166,8.78697 -2.80229,18.63275 -5.3625,26.55609 -2.56021,7.92334 -5.61998,14.04289 -9.0289,20.70924 -3.40893,6.66634 -7.19546,13.93649 -12.49809,21.73904 -5.30263,7.80255 -12.11862,16.13321 -21.51181,26.05671 -9.39319,9.9235 -21.35945,21.43534 -35.97902,30.82836 -14.61957,9.39301 -31.88812,16.66399 -47.79527,21.51196 -15.90715,4.84797 -30.44931,7.27167 -46.27693,8.02942 -15.82761,0.75776 -32.95284,-0.15155 -55.77937,-5.15928 C 212.79233,632.6282 184.36567,623.55586 159.899,612.04206 135.43232,600.52826 114.98237,586.592 96.929682,568.90825 78.876992,551.2245 63.073576,529.58946 53.074516,509.51583 43.075456,489.4422 38.807675,470.83016 35.689153,453.41956 c -3.118521,-17.41061 -5.087982,-33.62078 -5.618152,-52.93542 -0.530171,-19.31465 0.378827,-41.73659 3.560197,-61.27868 3.18137,-19.5421 8.635315,-36.20693 15.452286,-51.5828 6.81697,-15.37587 14.998098,-29.46559 27.475093,-43.44774 12.476995,-13.98216 29.032073,-27.67772 46.756633,-38.35766 17.72456,-10.67994 36.50951,-18.25452 51.88585,-23.02635 15.37634,-4.77183 27.34417,-6.74122 40.90251,-6.58957 13.55833,0.15164 28.70748,2.42401 40.14455,6.13541 11.43706,3.71139 19.16361,8.86243 25.7718,13.77287 6.60819,4.91044 12.09863,9.58068 15.20435,10.79197 3.10572,1.21129 3.82642,-1.03508 5.01993,-5.64258 1.1935,-4.60749 2.8599,-11.57607 5.5112,-18.24171 2.6513,-6.66563 6.28709,-13.02827 11.28645,-19.69382 4.99935,-6.66555 11.362,-13.63416 18.25432,-20.4507 6.89232,-6.81653 14.31659,-13.48322 30.44874,-20.37528 16.13215,-6.89205 40.98027,-14.01316 64.08369,-17.34415 23.10342,-3.33098 44.15859,-2.8798 64.65685,1.27495 20.49825,4.15475 40.40085,12.05502 57.82215,22.43212 17.42129,10.37709 32.34701,23.19211 47.87315,41.22982 15.52613,18.0377 31.35644,40.95396 42.19853,59.68919 10.84208,18.73523 16.57781,33.07454 21.50136,46.93619 4.92355,13.86166 9.01368,27.19243 11.36189,42.72056 2.34821,15.52813 2.95415,33.25179 1.73784,48.19174 -1.2163,14.93996 -4.23706,27.02297 -10.60005,44.06682 -6.363,17.04384 -16.05697,39.00673 -30.90378,61.95905 -14.84682,22.95231 -34.84257,46.88662 -49.46156,61.50586 -14.61898,14.61924 -23.85956,19.92121 -37.11616,27.11766 -13.2566,7.19645 -30.40963,16.22436 -51.68327,20.57089 -21.27364,4.34653 -46.10357,3.89507 -65.57037,1.85002 -19.46681,-2.04506 -33.30642,-5.65539 -46.50231,-10.23195 -13.1959,-4.57656 -25.38077,-9.99206 -36.66712,-17.94546 -11.28635,-7.95341 -21.44489,-18.26134 -29.04783,-28.70586 -7.60293,-10.44451 -12.23403,-20.45367 -15.03657,-29.69487 -2.80253,-9.24119 -3.71119,-17.57053 -8.25658,-16.51029 -4.5454,1.06024 -12.7233,11.50978 -26.13438,19.01039 -13.41108,7.50062 -32.03662,12.04344 -49.76323,12.34623 -17.72661,0.3028 -34.53855,-3.63513 -52.56656,-10.22518 -18.02802,-6.59005 -37.26663,-15.83065 -53.28283,-26.17027 -16.0162,-10.33962 -28.977082,-21.92817 -40.717821,-35.63834 -11.740738,-13.71017 -22.345103,-29.61672 -30.14692,-48.8564 -7.801817,-19.23967 -12.801036,-41.8119 -14.315832,-67.7171 -1.514797,-25.9052 0.454592,-55.14305 3.658812,-78.25615 3.204221,-23.11309 7.779986,-40.62545 12.93142,-54.71657 5.151433,-14.09113 10.944867,-25.01559 19.14344,-37.59735 8.198572,-12.58177 18.802371,-26.82116 36.223881,-40.91022 17.42151,-14.089057 41.66222,-28.027465 65.82457,-38.934538 24.16236,-10.907072 48.25065,-18.785004 68.09557,-23.178068 19.84492,-4.393064 35.44932,-5.302059 51.80974,-4.847568 16.36041,0.454491 33.4801,2.272511 51.28011,7.802003 17.80001,5.529492 36.28197,14.770472 54.15776,28.101621 17.87579,13.331149 35.14577,30.75261 47.18931,48.47699 12.04354,17.72438 18.86064,35.75182 23.17834,49.08383 4.3177,13.33201 6.13509,21.96465 5.60455,33.02624 -0.53055,11.06159 -3.4077,24.53877 -5.90797,33.25116 -2.50027,8.71239 -4.61683,12.64315 -5.67891,14.61559 -1.06208,1.97243 -1.06208,1.97243 9.46717,1.36643 z"
       id="path824-4"
       inkscape:connector-curvature="0"
       inkscape:path-effect="#path-effect826-5"
       inkscape:original-d="m 457.65574,262.24852 c 21.05856,-1.21106 42.11587,-2.42299 63.17194,-3.63579 23.48217,21.96526 46.96314,43.93133 70.44353,65.89879 8.29829,25.62516 16.59458,51.24825 24.89164,76.87779 1.8799,16.65796 3.75846,33.31383 5.63613,49.97179 -4.12626,16.04785 -8.25342,32.09633 -12.38201,48.14746 -5.15603,11.45478 -10.31286,22.91014 -15.47013,34.36526 -18.15977,24.89144 -36.32259,49.78743 -54.48571,74.6842 -15.45502,11.36426 -30.90217,22.72246 -46.35639,34.08559 -17.87588,9.24044 -35.75099,18.48096 -53.62798,27.72294 -21.66482,0.75654 -43.32556,1.51391 -64.98984,2.27237 -15.90558,-1.21078 -31.74101,-2.41729 -47.71981,-3.6358 -25.41649,-8.67375 -50.5981,-17.26867 -75.89723,-25.90504 -20.67982,-13.13407 -41.50744,-26.36037 -62.263,-39.53927 -13.1789,-21.21004 -26.35851,-42.41861 -39.53927,-63.62642 -2.72582,-17.11935 -5.45269,-34.84404 -8.18054,-52.26456 -1.36236,-12.72568 -2.70629,-25.26898 -4.09027,-38.17585 1.99864,-10.75755 3.93978,-21.20981 5.90817,-31.8132 2.27337,-7.72707 4.54574,-15.45314 6.81712,-23.1782 5.45469,-7.27259 10.90838,-14.54418 16.36107,-21.81477 5.90826,-5.60533 11.81734,-11.21138 17.7245,-16.81555 4.24276,-3.03083 8.48453,-6.06067 12.72529,-9.0895 2.60199,-1.09805 5.20368,-2.19539 7.80403,-3.29159 -5.86411,-2.60681 -11.72919,-5.21261 -17.5953,-7.81742 -8.39379,-7.71 -16.78856,-15.41898 -25.18434,-23.12697 -5.79874,-10.85825 -11.59849,-21.71552 -17.39922,-32.57175 -2.95756,-21.47581 -5.91332,-42.9468 -8.86895,-64.4251 5.265,-22.15586 10.52894,-44.30399 15.79634,-66.46353 4.84761,-8.33255 9.6956,-16.66504 14.54318,-24.9961 7.57423,-12.72539 15.14786,-25.44909 22.72372,-38.17585 15.30021,-10.300806 30.60242,-20.603288 45.90191,-30.90426 16.36094,-7.726526 32.72316,-15.453132 49.08324,-23.178196 21.81577,-5.3032 43.50711,-10.575402 65.44432,-15.906604 24.12436,-10e-4 47.97627,-10e-4 71.9629,0 13.897,3.760295 27.793,7.521589 41.688,11.283885 11.66447,7.158242 23.27521,14.281904 34.99453,21.470571 16.88082,13.839107 33.60869,27.551016 50.41436,41.324874 9.93266,13.24588 19.99573,26.6633 29.99532,39.99375 12.57297,24.0885 25.14612,48.1744 37.72137,72.26143 2.57635,21.2078 5.15155,42.41529 7.72606,63.62642 -8.78605,26.96616 -17.57201,53.92996 -26.35951,80.89644 -11.3613,14.69425 -22.72183,29.3872 -34.08558,44.08402 -9.84672,8.48319 -19.69289,16.96605 -29.54084,25.45057 -12.57406,3.93818 -25.14658,7.87656 -37.72138,11.81634 -10.75591,-0.45552 -21.2078,-0.90995 -31.81321,-1.36343 -2.30813,-0.40349 -4.61562,-0.80569 -6.92738,-1.20747 2.76657,5.66019 5.52795,11.31282 8.29081,16.97151 1.36227,6.8649 2.72557,13.7289 4.09026,20.59392 0.75661,7.72861 1.51374,15.45131 2.27238,23.17819 -2.12013,9.84711 -4.24076,19.69289 -6.36264,29.54084 -2.87768,6.05937 -6.05866,12.11832 -9.08949,18.17897 -3.78704,7.27204 -7.57357,14.54219 -11.36186,21.81478 -6.81724,8.3324 -13.63323,16.66306 -20.45135,24.99609 -11.96839,11.51386 -23.93465,23.0257 -35.90348,34.54005 -17.2705,7.27121 -34.53905,14.54219 -51.81008,21.81478 -14.5432,2.42303 -29.08536,4.84672 -43.62955,7.27159 -17.11887,-0.75852 -34.23607,-1.8189 -51.35561,-2.72685 C 212.79195,632.6294 184.36529,623.55706 155.88473,614.4662 135.43154,600.52941 114.98159,586.59315 94.530679,572.65455 78.875865,551.22532 63.072446,529.59029 47.343315,508.05458 43.074288,489.44247 38.806506,470.83043 34.540056,452.21883 c -1.96832,-16.21001 -3.937779,-32.42018 -5.908168,-48.62876 0.9099,-22.42054 1.818898,-44.84248 2.726847,-67.26222 5.45444,-16.66429 10.908386,-33.32912 16.361079,-49.99218 8.180951,-14.0887 16.362079,-28.17842 24.541618,-42.26612 16.774055,-13.87689 33.329128,-27.57245 49.992188,-41.35717 18.78594,-7.57558 37.57089,-15.15016 56.35482,-22.72373 11.96883,-1.97039 23.93666,-3.93978 35.90348,-5.90816 15.15015,2.27137 30.2993,4.54374 45.44745,6.81711 7.72658,5.14939 15.45313,10.30042 23.1782,15.45214 5.49145,4.66924 10.9819,9.33948 16.47134,14.01072 0.7217,-2.24738 1.4424,-4.49375 2.1621,-6.73914 1.66741,-6.96963 3.33382,-13.93821 4.99922,-20.90582 3.6368,-6.36364 7.27259,-12.72628 10.90738,-19.08792 6.36364,-6.96961 12.72629,-13.93822 19.08793,-20.90583 7.4229,-6.66556 14.84717,-13.33225 22.26925,-19.99687 24.84208,-7.12009 49.6902,-14.2412 74.5338,-21.3603 21.36028,0.60494 42.41862,0.90795 63.62642,1.36342 19.78917,7.85385 39.69177,15.75412 59.53615,23.63267 14.99865,12.87577 29.92437,25.69079 44.99296,38.63033 15.98391,23.13615 31.81422,46.05241 47.71982,69.08011 5.90923,14.39083 11.51435,28.78238 17.27003,43.17507 4.09142,13.33073 8.18154,26.6615 12.27081,39.99375 0.60699,17.72434 1.21293,35.448 1.8179,53.1735 -3.1805,12.11898 -6.05866,24.23764 -9.08949,36.35796 -9.6954,21.9674 -19.38937,43.93029 -29.08637,65.89879 -19.997,23.936 -39.99275,47.87031 -59.99062,71.80696 -9.24039,5.30143 -18.48096,10.6034 -27.72294,15.9066 -17.27124,9.08965 -34.42426,18.11756 -51.81009,27.26847 -25.16124,-0.4585 -49.99117,-0.90995 -74.98827,-1.36343 -13.93622,-3.63679 -27.77583,-7.24713 -41.81165,-10.90739 -12.35574,-5.49288 -24.54062,-10.90838 -36.81242,-16.36107 -10.30042,-10.45391 -20.45897,-20.76184 -30.90426,-31.35873 -4.76037,-10.29171 -9.39148,-20.30087 -14.08871,-30.44979 -0.90795,-8.33303 -1.8166,-16.66237 -2.72684,-24.9961 -8.18178,10.45422 -16.35968,20.90376 -24.54162,31.35874 -18.63992,4.54707 -37.26546,9.08989 -55.90036,13.63423 -16.81876,-3.9383 -33.6307,-7.87622 -50.44666,-11.81633 C 151.64316,496.14997 132.40455,486.90938 113.16413,477.6694 100.37251,466.23029 87.411627,454.64174 74.533804,443.12934 63.930362,427.22168 53.326,411.31513 42.720595,395.40952 37.722376,372.83629 32.723158,350.26406 27.722939,327.69283 c 1.970389,-29.23885 3.939779,-58.4767 5.908168,-87.71355 4.438432,-16.98958 9.014197,-34.50194 13.523958,-51.75886 5.79343,-10.92534 11.586864,-21.8498 17.380302,-32.77338 10.603911,-14.23988 21.207707,-28.47927 31.813209,-42.7206 24.237864,-13.936347 48.478574,-27.874756 72.715904,-41.811646 24.087,-7.878182 48.17529,-15.756113 72.26143,-23.632669 15.60385,-0.909904 31.20825,-1.818898 46.81087,-2.726847 17.11838,1.816775 34.23807,3.634796 51.35561,5.453693 18.48296,9.239979 36.96492,18.480959 55.44588,27.72294 17.27103,17.420521 34.541,34.841989 51.81008,52.264559 6.8158,18.02764 13.6329,36.05508 20.45135,54.08245 1.81698,8.63644 3.63438,17.26907 5.45369,25.90504 -2.87999,13.48681 -5.75714,26.96399 -8.63501,40.44823 -2.12228,3.94051 -4.23884,7.87127 -6.36264,11.81633 -10e-4,0.001 -10e-4,0.001 0,0 z"
       sodipodi:nodetypes="ccccccccccccccccccccccccccccccccccccccccccccccccccccccccccccccccccccccccccccccccccccccccccccccccccccccccccccccccccccc"
       transform="rotate(180,343.76081,344.22098)" />
  </g>
</svg>
